<svg xmlns="http://www.w3.org/2000/svg" viewBox="0 0 1024 1024" role="img" aria-label="MileClear">
  <title>MileClear</title>
  <g transform="translate(0,1024) scale(0.1,-0.1)" fill="#fbbf24">
    <path d="M3760 8944 c-713 -16 -900 -30 -1227 -94 -316 -62 -538 -169 -729
-352 -337 -324 -457 -723 -504 -1678 -26 -541 -30 -735 -20 -1230 6 -278 15
-876 20 -1330 10 -790 15 -954 40 -1300 11 -156 47 -400 76 -514 94 -373 270
-641 540 -819 119 -79 210 -122 359 -171 369 -120 682 -143 2215 -165 580 -9
2018 6 2435 24 765 34 1181 153 1461 416 136 127 216 237 294 404 61 129 94
231 124 385 68 349 87 706 101 1950 3 283 10 763 17 1065 12 575 5 911 -28
1415 -48 738 -117 1037 -310 1325 -116 174 -286 331 -455 420 -314 165 -704
227 -1544 246 -715 16 -2226 18 -2865 3z m1685 -183 c352 -6 741 -15 865 -21
124 -5 351 -14 505 -20 247 -8 441 -25 709 -61 93 -12 224 -45 374 -94 191
-62 367 -180 483 -323 146 -181 219 -390 253 -727 13 -127 16 -465 18 -2245 3
-1927 2 -2114 -15 -2330 -9 -129 -27 -291 -38 -360 -26 -158 -87 -343 -146
-448 -88 -155 -248 -300 -419 -378 -214 -97 -442 -133 -1034 -164 -306 -15
-3318 -17 -3640 -2 -598 29 -826 55 -1016 117 -278 91 -477 262 -584 500 -175
390 -198 947 -152 3595 32 1818 95 2185 430 2518 162 161 323 246 602 317 294
74 627 105 1340 125 212 6 417 12 455 14 39 2 138 2 220 0 83 -2 438 -8 790
-13z"/>
    <path d="M3687 7876 c-4 -11 -11 -14 -19 -9 -16 10 -58 11 -52 2 9 -15 -22
-16 -38 -1 -10 8 -18 11 -18 6 0 -5 -30 -10 -68 -10 -103 -3 -113 -5 -106 -28
6 -20 6 -20 -20 -2 -15 9 -36 19 -47 21 -18 4 -19 0 -13 -61 6 -57 5 -64 -10
-58 -12 5 -16 0 -17 -17 -1 -26 -4 -20 -14 25 -3 15 -9 26 -12 23 -8 -9 -33
19 -33 37 0 21 -17 20 -29 -1 -9 -16 -11 -15 -11 7 -1 14 -4 19 -7 12 -2 -6
-10 -9 -16 -5 -19 12 -97 15 -97 4 0 -14 -62 -4 -72 11 -6 10 -8 10 -8 1 0 -9
-7 -10 -25 -3 -14 5 -25 6 -25 1 0 -15 -33 -22 -42 -9 -6 11 -8 10 -8 0 0 -7
-4 -10 -10 -7 -5 3 -10 2 -10 -3 0 -16 -50 -63 -60 -57 -6 4 -10 -6 -10 -22
l0 -28 -31 38 c-25 30 -34 35 -45 26 -8 -6 -14 -8 -14 -4 0 14 -42 -39 -52
-65 -5 -14 -9 -49 -8 -77 1 -29 1 -65 1 -80 -1 -16 -1 -111 -1 -211 1 -101 -2
-182 -7 -179 -4 3 -8 -9 -9 -26 0 -18 -4 -198 -10 -402 -11 -453 -12 -3043 -1
-3395 10 -313 25 -412 26 -165 0 361 5 397 12 90 4 -176 3 -372 -2 -435 -7
-97 -6 -117 6 -126 8 -6 77 -14 152 -18 76 -3 218 -11 315 -18 98 -6 180 -9
182 -7 19 19 30 408 22 761 -2 76 1 135 5 132 5 -3 9 6 9 20 0 14 5 26 11 26
8 0 9 -27 4 -92 -4 -51 -6 -156 -5 -233 5 -250 4 -338 -4 -465 -4 -69 -10
-128 -12 -131 -8 -13 73 -24 141 -19 l70 5 3 43 c4 53 22 55 22 2 0 -36 2 -40
25 -40 14 0 28 7 31 15 4 8 12 15 20 15 8 0 14 5 14 11 0 5 -4 7 -10 4 -5 -3
-10 1 -10 10 0 24 24 12 28 -13 6 -39 19 -23 26 31 3 28 11 84 16 122 5 39 10
166 10 282 1 122 5 215 11 218 5 4 9 -1 9 -10 0 -9 4 -14 9 -11 5 3 9 47 9 98
0 78 -2 87 -10 58 -14 -53 -26 -57 -22 -8 1 23 -1 45 -5 48 -5 3 -5 46 -1 95
4 50 8 80 9 69 0 -12 8 -27 16 -34 13 -11 15 -5 16 46 1 33 3 84 4 114 12 216
15 323 16 522 0 148 4 230 11 234 8 5 9 -86 4 -302 -5 -170 -10 -554 -12 -854
-2 -315 -8 -565 -14 -593 -15 -72 -13 -147 4 -147 33 0 44 177 52 840 4 322 8
610 9 640 6 119 18 206 28 219 9 10 14 134 17 415 4 332 7 396 18 373 6 -16
12 -31 12 -34 0 -3 8 -17 19 -31 10 -15 21 -39 25 -54 3 -16 10 -28 15 -28 5
0 13 -14 16 -31 5 -20 10 -27 15 -20 4 8 9 -1 13 -22 5 -32 37 -106 72 -167 8
-14 15 -33 15 -43 0 -10 6 -20 14 -23 7 -3 22 -23 31 -45 10 -22 22 -36 26
-32 5 5 11 41 15 81 4 41 10 68 14 62 5 -8 10 -9 14 -2 12 20 56 163 56 182 0
11 4 20 8 20 4 0 14 21 21 48 8 26 18 52 23 59 5 7 7 16 5 20 -3 5 3 26 13 48
11 22 20 49 20 60 0 11 14 47 30 80 16 33 30 66 30 74 0 7 11 35 25 63 31 62
31 75 0 129 -14 24 -25 58 -24 74 0 27 3 25 30 -28 16 -32 27 -62 24 -67 -4
-6 -2 -10 3 -10 5 0 29 46 52 103 23 56 55 128 71 159 16 32 29 64 29 72 0 8
-25 65 -55 127 -30 62 -55 119 -54 128 0 17 16 -13 79 -153 l40 -89 27 53 c23
46 25 57 15 83 -6 17 -10 32 -8 35 2 2 7 -6 11 -17 9 -30 19 -26 38 15 10 19
13 33 8 30 -13 -8 -47 52 -91 164 -71 178 -241 544 -470 1010 -125 256 -231
476 -235 490 -18 62 -47 130 -55 130 -5 0 -7 -8 -3 -17 6 -16 3 -15 -17 2 -23
19 -23 19 -16 1 7 -19 6 -19 -14 -1 -11 10 -20 15 -20 12 0 -4 -10 -3 -22 2
-22 8 -23 7 -20 -38 l4 -46 -26 35 c-13 19 -31 44 -39 54 -13 18 -14 18 -20 2z
m270 -462 c-3 -3 -13 8 -21 25 -23 43 -19 52 5 13 12 -18 19 -35 16 -38z m608
-1110 c9 -15 18 -32 19 -39 1 -7 7 -19 13 -26 12 -16 73 -135 73 -144 0 -12
-37 31 -53 60 -34 65 -80 175 -73 175 2 0 11 -12 21 -26z m35 -293 c-1 -13
-29 45 -29 59 0 8 6 0 14 -19 8 -18 15 -36 15 -40z m-805 -710 c3 -45 0 -83
-5 -86 -6 -4 -10 29 -10 86 0 112 10 112 15 0z m-118 -398 c-2 -16 -4 -5 -4
22 0 28 2 40 4 28 2 -13 2 -35 0 -50z m-5 -898 c-6 -127 -7 -27 -6 340 2 286
4 522 6 525 7 12 7 -701 0 -865z m128 723 c0 -96 -3 -138 -10 -128 -13 20 -13
270 0 270 6 0 10 -54 10 -142z m-1163 -1100 c-2 -24 -4 -5 -4 42 0 47 2 66 4
43 2 -24 2 -62 0 -85z m950 35 c-3 -10 -5 -2 -5 17 0 19 2 27 5 18 2 -10 2
-26 0 -35z m70 -70 c-2 -21 -4 -4 -4 37 0 41 2 58 4 38 2 -21 2 -55 0 -75z
m-75 -488 c-11 -15 -18 193 -12 355 4 143 4 141 11 -100 4 -135 4 -249 1 -255z
m158 285 c0 -11 -4 -20 -9 -20 -7 0 -8 17 -2 38 4 10 11 -2 11 -18z m-80 -62
c0 -19 -2 -20 -10 -8 -13 19 -13 30 0 30 6 0 10 -10 10 -22z m47 -100 c-2 -18
-4 -4 -4 32 0 36 2 50 4 33 2 -18 2 -48 0 -65z m-47 -35 c0 -48 -2 -84 -4 -82
-8 8 -12 178 -4 173 4 -3 8 -44 8 -91z m24 -211 c-1 -102 -5 -147 -14 -155
-10 -10 -11 0 -6 52 3 35 7 134 8 220 1 107 3 136 7 91 3 -36 6 -129 5 -208z
m23 76 c-2 -13 -4 -3 -4 22 0 25 2 35 4 23 2 -13 2 -33 0 -45z m-970 -255 c-2
-32 -3 -6 -3 57 0 63 1 89 3 58 2 -32 2 -84 0 -115z"/>
    <path d="M6462 7875 c-7 -8 -57 -47 -110 -87 -156 -116 -519 -493 -696 -722
-160 -208 -197 -258 -261 -351 -117 -171 -188 -277 -235 -353 -72 -116 -133
-200 -127 -173 11 46 -13 4 -125 -219 -108 -213 -138 -279 -257 -565 -75 -180
-173 -476 -167 -505 3 -14 3 -19 -1 -11 -13 31 -141 -435 -204 -744 -78 -385
-118 -819 -103 -1115 4 -85 7 -194 5 -241 l-3 -86 114 -12 c62 -6 221 -20 353
-30 132 -11 258 -22 280 -25 22 -4 60 -6 85 -5 74 3 105 2 340 -11 124 -7 232
-12 240 -12 48 1 130 16 130 23 0 5 20 9 44 9 54 0 83 23 77 62 0 4 9 10 21
14 21 6 21 6 14 288 -5 238 -3 313 13 491 48 505 87 753 177 1119 25 98 42
188 39 200 -5 15 -4 17 3 8 7 -11 11 -8 15 10 10 33 7 46 -4 23 -7 -16 -8 -14
-4 10 14 70 27 108 34 96 4 -6 22 35 40 96 19 60 66 198 105 308 l71 200 3
-367 c2 -305 5 -368 16 -368 23 0 29 -248 22 -866 -6 -507 -4 -586 15 -849 11
-159 25 -297 30 -305 7 -10 9 1 6 35 -2 32 1 55 9 62 6 7 10 27 9 45 -5 45
-25 385 -28 476 -4 114 9 84 20 -45 l10 -118 3 160 c3 139 4 150 10 85 4 -41
8 -121 9 -177 0 -56 6 -114 11 -129 8 -19 8 -29 0 -34 -8 -5 -9 -41 -3 -121
l8 -114 6 80 5 80 3 -70 c1 -38 8 -101 15 -140 l14 -70 1 65 c2 90 21 58 21
-35 0 -48 3 -65 10 -55 5 8 7 32 3 53 -3 23 -2 37 5 37 6 0 12 -24 14 -52 2
-37 7 -52 16 -50 16 3 20 -8 31 -83 8 -57 9 -55 10 50 1 99 3 108 16 91 8 -11
15 -32 15 -47 0 -15 7 -42 15 -60 l14 -34 2 35 1 35 11 -35 c12 -35 12 -35 15
28 3 65 22 79 22 16 0 -35 13 -46 24 -18 3 9 6 25 6 37 0 16 3 18 9 8 5 -7 6
17 3 59 -4 53 -2 71 7 66 6 -4 12 -31 12 -59 1 -45 2 -48 9 -22 7 27 8 25 10
-20 l3 -50 6 45 c5 39 7 42 13 20 4 -14 8 -43 9 -65 1 -22 4 -31 6 -20 3 11 9
22 13 25 4 3 12 30 17 60 l9 55 8 -78 8 -77 19 22 18 23 1 -25 c1 -23 2 -24
14 -7 14 18 14 18 19 0 3 -11 5 -6 6 12 1 17 6 37 11 45 7 12 10 8 11 -15 l1
-30 13 30 c13 27 14 28 15 7 0 -18 4 -22 25 -18 25 5 27 2 40 -62 5 -23 11
-32 21 -28 10 4 20 -7 31 -29 20 -42 33 -30 33 29 l0 40 20 -22 c11 -12 20
-27 20 -35 0 -21 29 -16 36 5 4 13 11 17 25 13 15 -5 19 -1 19 20 0 15 4 24
10 20 6 -3 10 3 10 14 0 23 15 28 23 9 3 -7 6 -4 7 7 1 16 4 14 15 -10 l14
-30 2 35 c1 24 3 28 6 13 4 -23 23 -32 23 -12 0 6 7 9 15 5 11 -4 15 1 15 17
0 20 2 19 15 -7 8 -15 15 -37 15 -47 0 -11 5 -19 10 -19 6 0 10 24 11 53 0 28
3 46 6 39 2 -6 9 -10 14 -6 5 3 10 -27 11 -68 1 -55 2 -60 5 -23 5 83 14 136
22 131 4 -3 13 16 21 42 11 37 14 133 14 452 -1 930 -6 1525 -13 1535 -4 5 -4
53 0 105 5 52 8 133 8 180 -1 47 0 87 0 90 12 60 21 2119 9 2126 -4 3 -9 38
-10 77 0 40 -5 -34 -10 -163 -5 -129 -6 -266 -3 -305 3 -47 2 -65 -5 -55 -5 9
-9 157 -9 360 l0 346 25 54 c14 30 33 63 42 74 16 18 16 18 -6 7 -36 -19 -37
-6 -2 19 17 12 29 24 26 27 -2 3 -15 -2 -28 -11 -31 -22 -38 -20 -38 9 0 21
-5 25 -32 27 -18 0 -40 0 -48 0 -8 -1 -43 3 -76 8 -126 21 -438 41 -709 46
-243 4 -282 3 -293 -11z m-312 -358 c0 -2 -17 -19 -37 -38 l-38 -34 34 38 c33
34 41 42 41 34z m-380 -393 c-55 -69 -108 -138 -117 -152 -9 -15 -42 -60 -72
-100 -41 -55 -52 -75 -42 -81 8 -6 9 -11 3 -15 -6 -3 -12 -1 -14 6 -2 6 -17
-6 -33 -28 -16 -21 -46 -62 -67 -90 -21 -28 -38 -56 -38 -61 0 -6 -7 -17 -16
-24 -59 -49 -245 -367 -417 -712 -43 -88 -81 -157 -84 -154 -9 9 204 431 277
547 5 8 56 92 114 185 91 149 126 200 214 315 10 14 38 54 62 90 42 62 160
215 225 290 16 20 43 52 59 73 16 20 33 37 38 37 4 0 -37 -57 -92 -126z m50
26 c-17 -22 -37 -43 -43 -47 -6 -4 6 14 27 40 21 26 40 47 43 47 3 0 -10 -18
-27 -40z m1787 -432 c-2 -13 -4 -5 -4 17 -1 22 1 32 4 23 2 -10 2 -28 0 -40z
m-2144 -180 c-59 -93 -104 -158 -109 -158 -7 0 0 11 59 98 27 39 51 72 54 72
2 0 0 -6 -4 -12z m-165 -250 c-37 -57 -161 -291 -254 -483 -57 -115 -104 -207
-104 -204 0 12 128 284 190 404 76 145 168 305 176 305 4 0 0 -10 -8 -22z
m1006 -607 c-20 -50 -39 -90 -41 -87 -2 2 13 45 33 95 20 51 38 90 40 88 3 -2
-12 -45 -32 -96z m158 -38 c-4 -148 -10 -153 -11 -10 -1 64 2 117 7 117 4 0 6
-48 4 -107z m-1536 -90 c-8 -15 -15 -25 -16 -21 0 12 23 58 27 54 3 -2 -2 -17
-11 -33z m1303 -67 c-17 -48 -33 -85 -36 -82 -3 2 10 43 28 90 18 47 34 84 36
82 2 -2 -11 -42 -28 -90z m-55 -152 c-9 -27 -21 -53 -25 -59 -5 -5 0 19 12 54
12 34 23 60 25 58 2 -2 -3 -26 -12 -53z m288 11 c-6 -34 -12 -32 -12 6 0 16 4
28 9 25 4 -3 6 -17 3 -31z m5 -173 c-2 -129 -15 -102 -16 33 -1 67 2 95 9 85
5 -8 8 -61 7 -118z m-382 -92 c-7 -25 -14 -38 -14 -29 -1 18 20 82 25 77 2 -2
-3 -24 -11 -48z m492 -232 c-1 -46 -3 -11 -3 77 0 88 2 125 3 83 2 -42 2 -114
0 -160z m-108 -272 c1 -137 -2 -246 -5 -243 -4 3 -8 122 -10 264 -3 167 -1
253 6 243 5 -8 9 -122 9 -264z m1077 -351 c-2 -119 -6 -219 -10 -222 -3 -3 -6
90 -6 209 0 188 3 228 16 228 2 0 2 -97 0 -215z m-1076 48 c0 -25 -2 -44 -4
-42 -8 10 -13 89 -5 89 5 0 9 -21 9 -47z m-1 -160 c-1 -63 -4 -87 -8 -68 -7
29 -3 165 5 165 2 0 4 -44 3 -97z m-2 -180 c-4 -38 -8 -149 -8 -248 -1 -131
-4 -165 -10 -125 -10 74 1 440 14 440 6 0 8 -25 4 -67z m24 -163 l-9 -55 -1
65 c-1 39 3 60 8 55 6 -6 6 -33 2 -65z m-4 -132 c-2 -13 -4 -3 -4 22 0 25 2
35 4 23 2 -13 2 -33 0 -45z m433 -435 c0 -42 -9 -39 -16 6 -3 18 -1 31 5 31 6
0 11 -16 11 -37z m639 -160 c1 -13 -3 -23 -9 -23 -5 0 -10 19 -9 43 0 32 2 37
9 22 5 -11 9 -30 9 -42z m0 -123 c0 -34 -2 -40 -9 -25 -13 29 -13 104 0 85 5
-8 9 -35 9 -60z m-752 -57 c-3 -10 -5 -2 -5 17 0 19 2 27 5 18 2 -10 2 -26 0
-35z"/>
    <path d="M2623 7270 c0 -36 2 -50 4 -32 2 17 2 47 0 65 -2 17 -4 3 -4 -33z"/>
    <path d="M5649 7113 c-29 -35 -41 -53 -36 -53 2 0 17 16 31 35 28 36 31 49 5
18z"/>
    <path d="M5468 6888 c-29 -39 -41 -58 -35 -58 2 0 18 20 36 45 37 51 36 62 -1
13z"/>
    <path d="M4401 6825 c0 -5 6 -21 14 -35 8 -14 14 -20 14 -15 0 6 -6 21 -14 35
-8 14 -14 21 -14 15z"/>
    <path d="M4431 6753 c1 -16 38 -88 38 -77 1 14 -27 84 -34 84 -3 0 -5 -3 -4
-7z"/>
    <path d="M6373 4295 c0 -22 2 -30 4 -17 2 12 2 30 0 40 -3 9 -5 -1 -4 -23z"/>
    <path d="M3852 3650 c0 -19 2 -27 5 -17 2 9 2 25 0 35 -3 9 -5 1 -5 -18z"/>
    <path d="M3731 3598 c0 -32 3 -58 8 -58 11 0 26 78 17 87 -3 4 -7 -2 -7 -13
-1 -12 -4 -7 -9 11 -6 25 -8 20 -9 -27z"/>
    <path d="M3742 3220 c0 -19 2 -27 5 -17 2 9 2 25 0 35 -3 9 -5 1 -5 -18z"/>
    <path d="M3743 3085 c0 -27 2 -38 4 -22 2 15 2 37 0 50 -2 12 -4 0 -4 -28z"/>
    <path d="M3730 2865 c-8 -98 -7 -126 2 -117 5 5 7 44 5 88 -2 66 -4 71 -7 29z"/>
    <path d="M7062 2730 c0 -19 2 -27 5 -17 2 9 2 25 0 35 -3 9 -5 1 -5 -18z"/>
  </g>
  <g transform="translate(0,1024) scale(0.1,-0.1)" fill="#ffffff">
    <path d="M6844 7720 c-141 -142 -204 -224 -186 -242 4 -4 21 -10 38 -14 28 -5
36 0 95 67 35 39 111 122 169 183 58 61 114 121 124 134 l19 22 -55 0 -54 0
-150 -150z"/>
    <path d="M6334 7101 c-30 -29 -59 -71 -206 -296 -94 -144 -102 -158 -112 -197
-8 -35 15 -58 60 -58 45 0 63 20 136 148 31 55 89 148 128 207 105 160 106
162 79 191 -12 13 -25 22 -27 19 -3 -3 -10 0 -17 5 -8 7 -21 1 -41 -19z"/>
    <path d="M5790 6205 c-32 -17 -138 -219 -215 -408 -53 -132 -55 -140 -38 -153
10 -8 28 -17 41 -20 12 -3 22 -10 22 -15 0 -15 39 -10 66 8 31 20 50 56 109
213 26 69 68 165 92 214 51 101 51 130 2 141 -17 4 -33 13 -36 21 -6 17 -11
17 -43 -1z"/>
    <path d="M5361 5243 c-32 -28 -167 -412 -185 -528 -10 -63 13 -84 100 -92 53
-4 72 -2 80 8 14 19 48 110 73 199 12 41 32 111 45 155 13 44 33 105 45 135
11 30 21 62 21 70 0 19 -38 53 -50 45 -5 -3 -12 0 -15 6 -4 5 -13 8 -21 5 -7
-3 -16 -1 -19 4 -10 16 -51 11 -74 -7z"/>
    <path d="M5061 4254 c-23 -30 -26 -40 -69 -244 -37 -174 -55 -296 -50 -335 3
-29 5 -30 51 -30 27 -1 51 -6 55 -11 4 -6 15 -12 25 -12 116 -8 125 0 142 139
7 57 25 175 39 261 26 157 26 208 0 208 -8 0 -14 6 -14 14 0 9 -13 14 -41 14
-23 1 -47 6 -52 11 -20 20 -65 12 -86 -15z"/>
    <path d="M4944 3298 c-3 -5 -8 -6 -12 -4 -4 2 -15 -1 -24 -8 -12 -9 -20 -39
-28 -102 -13 -100 -15 -379 -5 -479 l7 -65 47 -2 c25 0 93 -2 150 -2 l104 -1
-7 119 c-3 66 -6 206 -6 312 l0 193 -32 14 c-18 8 -53 15 -78 16 -24 1 -47 6
-50 12 -7 11 -59 8 -66 -3z"/>
  </g>
</svg>
