<svg xmlns="http://www.w3.org/2000/svg" width="390" height="844" viewBox="0 0 390 844">
<rect width="390" height="844" fill="#030712"/>
<text x="50" y="37" font-family="Plus Jakarta Sans, -apple-system, Helvetica, Arial, sans-serif" font-size="17" font-weight="600" fill="#f0f2f5" text-anchor="start">9:41</text><rect x="133" y="11" width="124" height="36" rx="18" fill="#000"/>
<rect x="286" y="30" width="3" height="4" rx="1" fill="#f0f2f5"/><rect x="291" y="28" width="3" height="6" rx="1" fill="#f0f2f5"/><rect x="296" y="26" width="3" height="8" rx="1" fill="#f0f2f5"/><rect x="301" y="24" width="3" height="10" rx="1" fill="#f0f2f5"/>
<path d="M311 27 a9 9 0 0 1 13 0 M313.5 30 a5.5 5.5 0 0 1 8 0" fill="none" stroke="#f0f2f5" stroke-width="1.8" stroke-linecap="round"/><circle cx="317.5" cy="33" r="1.5" fill="#f0f2f5"/>
<rect x="333" y="26" width="26" height="12" rx="3.5" fill="none" stroke="#f0f2f5" stroke-width="1"/><rect x="335" y="28" width="20" height="8" rx="2" fill="#f0f2f5"/>
<circle cx="36" cy="80" r="20" fill="#0a1120" stroke="rgba(255,255,255,0.06)"/><path d="M39 72 l-8 8 8 8" fill="none" stroke="#f0f2f5" stroke-width="2.4" stroke-linecap="round" stroke-linejoin="round"/><text x="195" y="86" font-family="Plus Jakarta Sans, -apple-system, Helvetica, Arial, sans-serif" font-size="17" font-weight="600" fill="#f0f2f5" text-anchor="middle">You</text>
<rect x="16" y="120" width="358" height="46" rx="12" fill="#0a1120" stroke="rgba(245,166,35,0.35)"/>
<g transform="translate(28 132) scale(0.9166666666666666)" fill="none" stroke="#8494a7" stroke-width="1.8545454545454545" stroke-linecap="round" stroke-linejoin="round"><circle cx="11" cy="11" r="6"/><path d="M15.5 15.5L20 20"/></g>
<text x="60" y="149" font-family="Plus Jakarta Sans, -apple-system, Helvetica, Arial, sans-serif" font-size="15" font-weight="600" fill="#f0f2f5" text-anchor="start">cancel</text>
<rect x="110.4" y="133" width="2" height="20" fill="#f5a623"/>
<text x="20" y="192" font-family="Plus Jakarta Sans, -apple-system, Helvetica, Arial, sans-serif" font-size="13" font-weight="600" fill="#8494a7" text-anchor="start">4 results</text>
<rect x="16" y="204" width="358" height="256" rx="16" fill="#0a1120" stroke="rgba(255,255,255,0.06)"/><g transform="translate(31 225) scale(0.9166666666666666)" fill="none" stroke="#8494a7" stroke-width="1.8545454545454545" stroke-linecap="round" stroke-linejoin="round"><path d="M12 3.8l2.5 5.2 5.7.6-4.3 3.8 1.3 5.6-5.2-2.9-5.2 2.9 1.3-5.6-4.3-3.8 5.7-.6z"/></g><text x="64" y="232" font-family="Plus Jakarta Sans, -apple-system, Helvetica, Arial, sans-serif" font-size="16" font-weight="600" fill="#f0f2f5" text-anchor="start">Cancel Pro</text><text x="64" y="252" font-family="Plus Jakarta Sans, -apple-system, Helvetica, Arial, sans-serif" font-size="13" font-weight="500" fill="#8494a7" text-anchor="start">You › Your plan › Manage or cancel</text><path d="M350 230 l6 6 -6 6" fill="none" stroke="#94a3b8" stroke-width="2" stroke-linecap="round" stroke-linejoin="round"/><line x1="64" y1="268" x2="374" y2="268" stroke="rgba(255,255,255,0.08)" stroke-width="1"/><g transform="translate(31 289) scale(0.9166666666666666)" fill="none" stroke="#8494a7" stroke-width="1.8545454545454545" stroke-linecap="round" stroke-linejoin="round"><circle cx="12" cy="12" r="8.5"/><path d="M10 9v6M14 9v6"/></g><text x="64" y="296" font-family="Plus Jakarta Sans, -apple-system, Helvetica, Arial, sans-serif" font-size="16" font-weight="600" fill="#f0f2f5" text-anchor="start">Cancel a pause</text><text x="64" y="316" font-family="Plus Jakarta Sans, -apple-system, Helvetica, Arial, sans-serif" font-size="13" font-weight="500" fill="#8494a7" text-anchor="start">Home › Recording › Resume now</text><path d="M350 294 l6 6 -6 6" fill="none" stroke="#94a3b8" stroke-width="2" stroke-linecap="round" stroke-linejoin="round"/><line x1="64" y1="332" x2="374" y2="332" stroke="rgba(255,255,255,0.08)" stroke-width="1"/><g transform="translate(31 353) scale(0.9166666666666666)" fill="none" stroke="#8494a7" stroke-width="1.8545454545454545" stroke-linecap="round" stroke-linejoin="round"><path d="M7 3.5h7l4 4v13H7z"/><path d="M14 3.5v4h4"/></g><text x="64" y="360" font-family="Plus Jakarta Sans, -apple-system, Helvetica, Arial, sans-serif" font-size="16" font-weight="600" fill="#f0f2f5" text-anchor="start">Stop tax deadline reminders</text><text x="64" y="380" font-family="Plus Jakarta Sans, -apple-system, Helvetica, Arial, sans-serif" font-size="13" font-weight="500" fill="#8494a7" text-anchor="start">Tax tab › gear › Notifications</text><path d="M350 358 l6 6 -6 6" fill="none" stroke="#94a3b8" stroke-width="2" stroke-linecap="round" stroke-linejoin="round"/><line x1="64" y1="396" x2="374" y2="396" stroke="rgba(255,255,255,0.08)" stroke-width="1"/><g transform="translate(31 417) scale(0.9166666666666666)" fill="none" stroke="#8494a7" stroke-width="1.8545454545454545" stroke-linecap="round" stroke-linejoin="round"><path d="M12 3.5l7 2.5v5.5c0 4.5-3 7.8-7 9-4-1.2-7-4.5-7-9V6z"/></g><text x="64" y="424" font-family="Plus Jakarta Sans, -apple-system, Helvetica, Arial, sans-serif" font-size="16" font-weight="600" fill="#f0f2f5" text-anchor="start">Delete my account</text><text x="64" y="444" font-family="Plus Jakarta Sans, -apple-system, Helvetica, Arial, sans-serif" font-size="13" font-weight="500" fill="#8494a7" text-anchor="start">You › Privacy</text><path d="M350 422 l6 6 -6 6" fill="none" stroke="#94a3b8" stroke-width="2" stroke-linecap="round" stroke-linejoin="round"/>
<rect x="0" y="553" width="390" height="291" fill="#1c1f26"/><rect x="3" y="563" width="33" height="44" rx="6" fill="#3a3d45"/><text x="19.5" y="592" font-family="Plus Jakarta Sans, -apple-system, Helvetica, Arial, sans-serif" font-size="20" font-weight="500" fill="#f0f2f5" text-anchor="middle">q</text><rect x="42" y="563" width="33" height="44" rx="6" fill="#3a3d45"/><text x="58.5" y="592" font-family="Plus Jakarta Sans, -apple-system, Helvetica, Arial, sans-serif" font-size="20" font-weight="500" fill="#f0f2f5" text-anchor="middle">w</text><rect x="81" y="563" width="33" height="44" rx="6" fill="#3a3d45"/><text x="97.5" y="592" font-family="Plus Jakarta Sans, -apple-system, Helvetica, Arial, sans-serif" font-size="20" font-weight="500" fill="#f0f2f5" text-anchor="middle">e</text><rect x="120" y="563" width="33" height="44" rx="6" fill="#3a3d45"/><text x="136.5" y="592" font-family="Plus Jakarta Sans, -apple-system, Helvetica, Arial, sans-serif" font-size="20" font-weight="500" fill="#f0f2f5" text-anchor="middle">r</text><rect x="159" y="563" width="33" height="44" rx="6" fill="#3a3d45"/><text x="175.5" y="592" font-family="Plus Jakarta Sans, -apple-system, Helvetica, Arial, sans-serif" font-size="20" font-weight="500" fill="#f0f2f5" text-anchor="middle">t</text><rect x="198" y="563" width="33" height="44" rx="6" fill="#3a3d45"/><text x="214.5" y="592" font-family="Plus Jakarta Sans, -apple-system, Helvetica, Arial, sans-serif" font-size="20" font-weight="500" fill="#f0f2f5" text-anchor="middle">y</text><rect x="237" y="563" width="33" height="44" rx="6" fill="#3a3d45"/><text x="253.5" y="592" font-family="Plus Jakarta Sans, -apple-system, Helvetica, Arial, sans-serif" font-size="20" font-weight="500" fill="#f0f2f5" text-anchor="middle">u</text><rect x="276" y="563" width="33" height="44" rx="6" fill="#3a3d45"/><text x="292.5" y="592" font-family="Plus Jakarta Sans, -apple-system, Helvetica, Arial, sans-serif" font-size="20" font-weight="500" fill="#f0f2f5" text-anchor="middle">i</text><rect x="315" y="563" width="33" height="44" rx="6" fill="#3a3d45"/><text x="331.5" y="592" font-family="Plus Jakarta Sans, -apple-system, Helvetica, Arial, sans-serif" font-size="20" font-weight="500" fill="#f0f2f5" text-anchor="middle">o</text><rect x="354" y="563" width="33" height="44" rx="6" fill="#3a3d45"/><text x="370.5" y="592" font-family="Plus Jakarta Sans, -apple-system, Helvetica, Arial, sans-serif" font-size="20" font-weight="500" fill="#f0f2f5" text-anchor="middle">p</text><rect x="22.5" y="617" width="33" height="44" rx="6" fill="#3a3d45"/><text x="39" y="646" font-family="Plus Jakarta Sans, -apple-system, Helvetica, Arial, sans-serif" font-size="20" font-weight="500" fill="#f0f2f5" text-anchor="middle">a</text><rect x="61.5" y="617" width="33" height="44" rx="6" fill="#3a3d45"/><text x="78" y="646" font-family="Plus Jakarta Sans, -apple-system, Helvetica, Arial, sans-serif" font-size="20" font-weight="500" fill="#f0f2f5" text-anchor="middle">s</text><rect x="100.5" y="617" width="33" height="44" rx="6" fill="#3a3d45"/><text x="117" y="646" font-family="Plus Jakarta Sans, -apple-system, Helvetica, Arial, sans-serif" font-size="20" font-weight="500" fill="#f0f2f5" text-anchor="middle">d</text><rect x="139.5" y="617" width="33" height="44" rx="6" fill="#3a3d45"/><text x="156" y="646" font-family="Plus Jakarta Sans, -apple-system, Helvetica, Arial, sans-serif" font-size="20" font-weight="500" fill="#f0f2f5" text-anchor="middle">f</text><rect x="178.5" y="617" width="33" height="44" rx="6" fill="#3a3d45"/><text x="195" y="646" font-family="Plus Jakarta Sans, -apple-system, Helvetica, Arial, sans-serif" font-size="20" font-weight="500" fill="#f0f2f5" text-anchor="middle">g</text><rect x="217.5" y="617" width="33" height="44" rx="6" fill="#3a3d45"/><text x="234" y="646" font-family="Plus Jakarta Sans, -apple-system, Helvetica, Arial, sans-serif" font-size="20" font-weight="500" fill="#f0f2f5" text-anchor="middle">h</text><rect x="256.5" y="617" width="33" height="44" rx="6" fill="#3a3d45"/><text x="273" y="646" font-family="Plus Jakarta Sans, -apple-system, Helvetica, Arial, sans-serif" font-size="20" font-weight="500" fill="#f0f2f5" text-anchor="middle">j</text><rect x="295.5" y="617" width="33" height="44" rx="6" fill="#3a3d45"/><text x="312" y="646" font-family="Plus Jakarta Sans, -apple-system, Helvetica, Arial, sans-serif" font-size="20" font-weight="500" fill="#f0f2f5" text-anchor="middle">k</text><rect x="334.5" y="617" width="33" height="44" rx="6" fill="#3a3d45"/><text x="351" y="646" font-family="Plus Jakarta Sans, -apple-system, Helvetica, Arial, sans-serif" font-size="20" font-weight="500" fill="#f0f2f5" text-anchor="middle">l</text><rect x="61.5" y="671" width="33" height="44" rx="6" fill="#3a3d45"/><text x="78" y="700" font-family="Plus Jakarta Sans, -apple-system, Helvetica, Arial, sans-serif" font-size="20" font-weight="500" fill="#f0f2f5" text-anchor="middle">z</text><rect x="100.5" y="671" width="33" height="44" rx="6" fill="#3a3d45"/><text x="117" y="700" font-family="Plus Jakarta Sans, -apple-system, Helvetica, Arial, sans-serif" font-size="20" font-weight="500" fill="#f0f2f5" text-anchor="middle">x</text><rect x="139.5" y="671" width="33" height="44" rx="6" fill="#3a3d45"/><text x="156" y="700" font-family="Plus Jakarta Sans, -apple-system, Helvetica, Arial, sans-serif" font-size="20" font-weight="500" fill="#f0f2f5" text-anchor="middle">c</text><rect x="178.5" y="671" width="33" height="44" rx="6" fill="#3a3d45"/><text x="195" y="700" font-family="Plus Jakarta Sans, -apple-system, Helvetica, Arial, sans-serif" font-size="20" font-weight="500" fill="#f0f2f5" text-anchor="middle">v</text><rect x="217.5" y="671" width="33" height="44" rx="6" fill="#3a3d45"/><text x="234" y="700" font-family="Plus Jakarta Sans, -apple-system, Helvetica, Arial, sans-serif" font-size="20" font-weight="500" fill="#f0f2f5" text-anchor="middle">b</text><rect x="256.5" y="671" width="33" height="44" rx="6" fill="#3a3d45"/><text x="273" y="700" font-family="Plus Jakarta Sans, -apple-system, Helvetica, Arial, sans-serif" font-size="20" font-weight="500" fill="#f0f2f5" text-anchor="middle">n</text><rect x="295.5" y="671" width="33" height="44" rx="6" fill="#3a3d45"/><text x="312" y="700" font-family="Plus Jakarta Sans, -apple-system, Helvetica, Arial, sans-serif" font-size="20" font-weight="500" fill="#f0f2f5" text-anchor="middle">m</text><rect x="8" y="725" width="88" height="44" rx="6" fill="#2a2d33"/><text x="52" y="753" font-family="Plus Jakarta Sans, -apple-system, Helvetica, Arial, sans-serif" font-size="16" font-weight="500" fill="#f0f2f5" text-anchor="middle">123</text><rect x="102" y="725" width="186" height="44" rx="6" fill="#3a3d45"/><text x="195" y="753" font-family="Plus Jakarta Sans, -apple-system, Helvetica, Arial, sans-serif" font-size="16" font-weight="500" fill="#f0f2f5" text-anchor="middle">space</text><rect x="294" y="725" width="88" height="44" rx="6" fill="#f5a623"/><text x="338" y="753" font-family="Plus Jakarta Sans, -apple-system, Helvetica, Arial, sans-serif" font-size="16" font-weight="700" fill="#030712" text-anchor="middle">search</text>
<rect x="128" y="831" width="134" height="5" rx="2.5" fill="#f0f2f5" opacity="0.9"/>
</svg>